<svg width="291pt" height="355pt" viewBox="0.00 0.00 291.16 355.00" xmlns="http://www.w3.org/2000/svg" xmlns:xlink="http://www.w3.org/1999/xlink">
<g id="graph0" class="graph" transform="scale(1 1) rotate(0) translate(4 351)">
<title>Puppet__Graph__RelationshipGraph</title>
<polygon fill="white" stroke="transparent" points="-4,4 -4,-351 287.16,-351 287.16,4 -4,4"></polygon>
<text text-anchor="middle" x="141.58" y="-7.8" font-family="Times,serif" font-size="14.00">Resource Relationships</text>
<!-- User[alison] -->
<g id="node1" class="node">
<title>User[alison]</title>
<ellipse fill="none" stroke="black" cx="36.3" cy="-185" rx="36.11" ry="18"></ellipse>
<text text-anchor="middle" x="36.3" y="-183.1" font-family="Times,serif" font-size="8.00">User[alison]</text>
</g>
<!-- Whit[Completed_class[Contained]] -->
<g id="node2" class="node">
<title>Whit[Completed_class[Contained]]</title>
<ellipse fill="none" stroke="black" cx="82.3" cy="-113" rx="69.4" ry="18"></ellipse>
<text text-anchor="middle" x="82.3" y="-111.1" font-family="Times,serif" font-size="8.00">Finishing Class[Contained]</text>
</g>
<!-- User[alison]&#45;&gt;Whit[Completed_class[Contained]] -->
<g id="edge1" class="edge">
<title>User[alison]-&gt;Whit[Completed_class[Contained]]</title>
<path fill="none" stroke="black" d="M46.97,-167.76C52.44,-159.44 59.23,-149.1 65.4,-139.73"></path>
<polygon fill="black" stroke="black" points="68.48,-141.4 71.05,-131.12 62.63,-137.56 68.48,-141.4"></polygon>
</g>
<!-- Whit[Completed_class[Container]] -->
<g id="node8" class="node">
<title>Whit[Completed_class[Container]]</title>
<ellipse fill="none" stroke="black" cx="82.3" cy="-41" rx="68.77" ry="18"></ellipse>
<text text-anchor="middle" x="82.3" y="-39.1" font-family="Times,serif" font-size="8.00">Finishing Class[Container]</text>
</g>
<!-- Whit[Completed_class[Contained]]&#45;&gt;Whit[Completed_class[Container]] -->
<g id="edge7" class="edge">
<title>Whit[Completed_class[Contained]]-&gt;Whit[Completed_class[Container]]</title>
<path fill="none" stroke="black" d="M82.3,-94.7C82.3,-86.98 82.3,-77.71 82.3,-69.11"></path>
<polygon fill="black" stroke="black" points="85.8,-69.1 82.3,-59.1 78.8,-69.1 85.8,-69.1"></polygon>
</g>
<!-- User[tyrone] -->
<g id="node3" class="node">
<title>User[tyrone]</title>
<ellipse fill="none" stroke="black" cx="128.3" cy="-185" rx="38.01" ry="18"></ellipse>
<text text-anchor="middle" x="128.3" y="-183.1" font-family="Times,serif" font-size="8.00">User[tyrone]</text>
</g>
<!-- User[tyrone]&#45;&gt;Whit[Completed_class[Contained]] -->
<g id="edge2" class="edge">
<title>User[tyrone]-&gt;Whit[Completed_class[Contained]]</title>
<path fill="none" stroke="black" d="M117.4,-167.41C111.92,-159.08 105.17,-148.8 99.05,-139.49"></path>
<polygon fill="black" stroke="black" points="101.86,-137.39 93.45,-130.96 96.01,-141.24 101.86,-137.39"></polygon>
</g>
<!-- Whit[Admissible_class[Main]] -->
<g id="node4" class="node">
<title>Whit[Admissible_class[Main]]</title>
<ellipse fill="none" stroke="black" cx="225.3" cy="-329" rx="55.68" ry="18"></ellipse>
<text text-anchor="middle" x="225.3" y="-327.1" font-family="Times,serif" font-size="8.00">Starting Class[Main]</text>
</g>
<!-- Whit[Completed_class[Main]] -->
<g id="node5" class="node">
<title>Whit[Completed_class[Main]]</title>
<ellipse fill="none" stroke="black" cx="225.3" cy="-257" rx="57.71" ry="18"></ellipse>
<text text-anchor="middle" x="225.3" y="-255.1" font-family="Times,serif" font-size="8.00">Finishing Class[Main]</text>
</g>
<!-- Whit[Admissible_class[Main]]&#45;&gt;Whit[Completed_class[Main]] -->
<g id="edge3" class="edge">
<title>Whit[Admissible_class[Main]]-&gt;Whit[Completed_class[Main]]</title>
<path fill="none" stroke="black" d="M225.3,-310.7C225.3,-302.98 225.3,-293.71 225.3,-285.11"></path>
<polygon fill="black" stroke="black" points="228.8,-285.1 225.3,-275.1 221.8,-285.1 228.8,-285.1"></polygon>
</g>
<!-- Whit[Admissible_class[Container]] -->
<g id="node6" class="node">
<title>Whit[Admissible_class[Container]]</title>
<ellipse fill="none" stroke="black" cx="82.3" cy="-329" rx="65.6" ry="18"></ellipse>
<text text-anchor="middle" x="82.3" y="-327.1" font-family="Times,serif" font-size="8.00">Starting Class[Container]</text>
</g>
<!-- Whit[Admissible_class[Contained]] -->
<g id="node7" class="node">
<title>Whit[Admissible_class[Contained]]</title>
<ellipse fill="none" stroke="black" cx="82.3" cy="-257" rx="66.87" ry="18"></ellipse>
<text text-anchor="middle" x="82.3" y="-255.1" font-family="Times,serif" font-size="8.00">Starting Class[Contained]</text>
</g>
<!-- Whit[Admissible_class[Container]]&#45;&gt;Whit[Admissible_class[Contained]] -->
<g id="edge4" class="edge">
<title>Whit[Admissible_class[Container]]-&gt;Whit[Admissible_class[Contained]]</title>
<path fill="none" stroke="black" d="M82.3,-310.7C82.3,-302.98 82.3,-293.71 82.3,-285.11"></path>
<polygon fill="black" stroke="black" points="85.8,-285.1 82.3,-275.1 78.8,-285.1 85.8,-285.1"></polygon>
</g>
<!-- Whit[Admissible_class[Contained]]&#45;&gt;User[alison] -->
<g id="edge5" class="edge">
<title>Whit[Admissible_class[Contained]]-&gt;User[alison]</title>
<path fill="none" stroke="black" d="M71.17,-239.05C65.61,-230.59 58.77,-220.19 52.63,-210.84"></path>
<polygon fill="black" stroke="black" points="55.44,-208.74 47.02,-202.31 49.59,-212.59 55.44,-208.74"></polygon>
</g>
<!-- Whit[Admissible_class[Contained]]&#45;&gt;User[tyrone] -->
<g id="edge6" class="edge">
<title>Whit[Admissible_class[Contained]]-&gt;User[tyrone]</title>
<path fill="none" stroke="black" d="M93.44,-239.05C99,-230.59 105.84,-220.19 111.98,-210.84"></path>
<polygon fill="black" stroke="black" points="115.02,-212.59 117.59,-202.31 109.17,-208.74 115.02,-212.59"></polygon>
</g>
</g>
</svg>
