<svg width="392pt" height="427pt" viewBox="0.00 0.00 392.49 427.00" xmlns="http://www.w3.org/2000/svg" xmlns:xlink="http://www.w3.org/1999/xlink">
<g id="graph0" class="graph" transform="scale(1 1) rotate(0) translate(4 423)">
<title>Puppet__Graph__RelationshipGraph</title>
<polygon fill="white" stroke="transparent" points="-4,4 -4,-423 388.49,-423 388.49,4 -4,4"></polygon>
<text text-anchor="middle" x="192.25" y="-7.8" font-family="Times,serif" font-size="14.00">Resource Relationships</text>
<!-- User[alison] -->
<g id="node1" class="node">
<title>User[alison]</title>
<ellipse fill="cyan" stroke="cyan" cx="117.63" cy="-329" rx="36.11" ry="18"></ellipse>
<text text-anchor="middle" x="117.63" y="-327.1" font-family="Times,serif" font-size="8.00">User[alison]</text>
</g>
<!-- Whit[Completed_class[Container]] -->
<g id="node2" class="node">
<title>Whit[Completed_class[Container]]</title>
<ellipse fill="none" stroke="black" cx="68.63" cy="-41" rx="68.77" ry="18"></ellipse>
<text text-anchor="middle" x="68.63" y="-39.1" font-family="Times,serif" font-size="8.00">Finishing Class[Container]</text>
</g>
<!-- User[alison]&#45;&gt;Whit[Completed_class[Container]] -->
<g id="edge1" class="edge">
<title>User[alison]-&gt;Whit[Completed_class[Container]]</title>
<path fill="none" stroke="black" d="M90.42,-316.86C73.13,-308.21 52.1,-294.39 41.63,-275 5.32,-207.7 36.81,-113.75 56.17,-68.47"></path>
<polygon fill="black" stroke="black" points="59.49,-69.63 60.32,-59.06 53.08,-66.8 59.49,-69.63"></polygon>
</g>
<!-- Whit[Admissible_class[Contained]] -->
<g id="node3" class="node">
<title>Whit[Admissible_class[Contained]]</title>
<ellipse fill="red" stroke="red" cx="117.63" cy="-257" rx="66.87" ry="18"></ellipse>
<text text-anchor="middle" x="117.63" y="-255.1" font-family="Times,serif" font-size="8.00">Starting Class[Contained]</text>
</g>
<!-- User[alison]&#45;&gt;Whit[Admissible_class[Contained]] -->
<g id="edge2" class="edge">
<title>User[alison]-&gt;Whit[Admissible_class[Contained]]</title>
<path fill="none" stroke="cyan" d="M117.63,-310.7C117.63,-302.98 117.63,-293.71 117.63,-285.11"></path>
<polygon fill="cyan" stroke="cyan" points="121.13,-285.1 117.63,-275.1 114.13,-285.1 121.13,-285.1"></polygon>
</g>
<!-- Whit[Completed_class[Contained]] -->
<g id="node8" class="node">
<title>Whit[Completed_class[Contained]]</title>
<ellipse fill="red" stroke="red" cx="117.63" cy="-185" rx="69.4" ry="18"></ellipse>
<text text-anchor="middle" x="117.63" y="-183.1" font-family="Times,serif" font-size="8.00">Finishing Class[Contained]</text>
</g>
<!-- Whit[Admissible_class[Contained]]&#45;&gt;Whit[Completed_class[Contained]] -->
<g id="edge7" class="edge">
<title>Whit[Admissible_class[Contained]]-&gt;Whit[Completed_class[Contained]]</title>
<path fill="none" stroke="red" d="M117.63,-238.7C117.63,-230.98 117.63,-221.71 117.63,-213.11"></path>
<polygon fill="red" stroke="red" points="121.13,-213.1 117.63,-203.1 114.13,-213.1 121.13,-213.1"></polygon>
</g>
<!-- User[tyrone] -->
<g id="node4" class="node">
<title>User[tyrone]</title>
<ellipse fill="cyan" stroke="cyan" cx="117.63" cy="-113" rx="38.01" ry="18"></ellipse>
<text text-anchor="middle" x="117.63" y="-111.1" font-family="Times,serif" font-size="8.00">User[tyrone]</text>
</g>
<!-- User[tyrone]&#45;&gt;Whit[Completed_class[Container]] -->
<g id="edge3" class="edge">
<title>User[tyrone]-&gt;Whit[Completed_class[Container]]</title>
<path fill="none" stroke="black" d="M106.27,-95.76C100.38,-87.35 93.06,-76.89 86.44,-67.44"></path>
<polygon fill="black" stroke="black" points="89.22,-65.31 80.62,-59.12 83.49,-69.32 89.22,-65.31"></polygon>
</g>
<!-- Whit[Admissible_class[Main]] -->
<g id="node5" class="node">
<title>Whit[Admissible_class[Main]]</title>
<ellipse fill="none" stroke="black" cx="326.63" cy="-401" rx="55.68" ry="18"></ellipse>
<text text-anchor="middle" x="326.63" y="-399.1" font-family="Times,serif" font-size="8.00">Starting Class[Main]</text>
</g>
<!-- Whit[Completed_class[Main]] -->
<g id="node6" class="node">
<title>Whit[Completed_class[Main]]</title>
<ellipse fill="none" stroke="black" cx="326.63" cy="-329" rx="57.71" ry="18"></ellipse>
<text text-anchor="middle" x="326.63" y="-327.1" font-family="Times,serif" font-size="8.00">Finishing Class[Main]</text>
</g>
<!-- Whit[Admissible_class[Main]]&#45;&gt;Whit[Completed_class[Main]] -->
<g id="edge4" class="edge">
<title>Whit[Admissible_class[Main]]-&gt;Whit[Completed_class[Main]]</title>
<path fill="none" stroke="black" d="M326.63,-382.7C326.63,-374.98 326.63,-365.71 326.63,-357.11"></path>
<polygon fill="black" stroke="black" points="330.13,-357.1 326.63,-347.1 323.13,-357.1 330.13,-357.1"></polygon>
</g>
<!-- Whit[Admissible_class[Container]] -->
<g id="node7" class="node">
<title>Whit[Admissible_class[Container]]</title>
<ellipse fill="none" stroke="black" cx="152.63" cy="-401" rx="65.6" ry="18"></ellipse>
<text text-anchor="middle" x="152.63" y="-399.1" font-family="Times,serif" font-size="8.00">Starting Class[Container]</text>
</g>
<!-- Whit[Admissible_class[Container]]&#45;&gt;User[alison] -->
<g id="edge5" class="edge">
<title>Whit[Admissible_class[Container]]-&gt;User[alison]</title>
<path fill="none" stroke="black" d="M144.16,-383.05C140.08,-374.89 135.09,-364.91 130.55,-355.82"></path>
<polygon fill="black" stroke="black" points="133.63,-354.17 126.03,-346.79 127.37,-357.3 133.63,-354.17"></polygon>
</g>
<!-- Whit[Admissible_class[Container]]&#45;&gt;User[tyrone] -->
<g id="edge6" class="edge">
<title>Whit[Admissible_class[Container]]-&gt;User[tyrone]</title>
<path fill="none" stroke="black" d="M162.76,-383.07C185.27,-343.05 234.52,-240.43 195.63,-167 186.92,-150.55 170.57,-138.26 155.07,-129.68"></path>
<polygon fill="black" stroke="black" points="156.61,-126.53 146.11,-125.05 153.39,-132.75 156.61,-126.53"></polygon>
</g>
<!-- Whit[Completed_class[Contained]]&#45;&gt;User[tyrone] -->
<g id="edge8" class="edge">
<title>Whit[Completed_class[Contained]]-&gt;User[tyrone]</title>
<path fill="none" stroke="cyan" d="M117.63,-166.7C117.63,-158.98 117.63,-149.71 117.63,-141.11"></path>
<polygon fill="cyan" stroke="cyan" points="121.13,-141.1 117.63,-131.1 114.13,-141.1 121.13,-141.1"></polygon>
</g>
</g>
</svg>
