<svg width="342pt" height="571pt" viewBox="0.00 0.00 342.01 571.00" xmlns="http://www.w3.org/2000/svg" xmlns:xlink="http://www.w3.org/1999/xlink">
<g id="graph0" class="graph" transform="scale(1 1) rotate(0) translate(4 567)">
<title>Puppet__Graph__RelationshipGraph</title>
<polygon fill="white" stroke="transparent" points="-4,4 -4,-567 338.01,-567 338.01,4 -4,4"></polygon>
<text text-anchor="middle" x="167.01" y="-7.8" font-family="Times,serif" font-size="14.00">Resource Relationships</text>
<!-- Package[mysql&#45;server] -->
<g id="node1" class="node">
<title>Package[mysql-server]</title>
<ellipse fill="none" stroke="black" cx="151.59" cy="-473" rx="60.89" ry="18"></ellipse>
<text text-anchor="middle" x="151.59" y="-471.1" font-family="Times,serif" font-size="8.00">Package[mysql-server]</text>
</g>
<!-- File[/etc/mysql/my.cnf] -->
<g id="node2" class="node">
<title>File[/etc/mysql/my.cnf]</title>
<ellipse fill="none" stroke="black" cx="215.59" cy="-401" rx="60.89" ry="18"></ellipse>
<text text-anchor="middle" x="215.59" y="-399.1" font-family="Times,serif" font-size="8.00">File[/etc/mysql/my.cnf]</text>
</g>
<!-- Package[mysql&#45;server]&#45;&gt;File[/etc/mysql/my.cnf] -->
<g id="edge1" class="edge">
<title>Package[mysql-server]-&gt;File[/etc/mysql/my.cnf]</title>
<path fill="none" stroke="black" d="M166.76,-455.41C174.81,-446.61 184.84,-435.63 193.72,-425.92"></path>
<polygon fill="black" stroke="black" points="196.37,-428.21 200.53,-418.47 191.2,-423.49 196.37,-428.21"></polygon>
</g>
<!-- Whit[Completed_class[Mysql]] -->
<g id="node3" class="node">
<title>Whit[Completed_class[Mysql]]</title>
<ellipse fill="none" stroke="black" cx="189.59" cy="-257" rx="60.25" ry="18"></ellipse>
<text text-anchor="middle" x="189.59" y="-255.1" font-family="Times,serif" font-size="8.00">Finishing Class[Mysql]</text>
</g>
<!-- Package[mysql&#45;server]&#45;&gt;Whit[Completed_class[Mysql]] -->
<g id="edge2" class="edge">
<title>Package[mysql-server]-&gt;Whit[Completed_class[Mysql]]</title>
<path fill="none" stroke="black" d="M149.15,-454.86C147.8,-444.5 146.27,-431.02 145.59,-419 144.69,-403.03 142.89,-398.77 145.59,-383 151.62,-347.72 166.57,-309.16 177.37,-284.33"></path>
<polygon fill="black" stroke="black" points="180.7,-285.46 181.56,-274.9 174.3,-282.61 180.7,-285.46"></polygon>
</g>
<!-- File[/etc/mysql/my.cnf]&#45;&gt;Whit[Completed_class[Mysql]] -->
<g id="edge4" class="edge">
<title>File[/etc/mysql/my.cnf]-&gt;Whit[Completed_class[Mysql]]</title>
<path fill="none" stroke="black" d="M212.45,-382.87C208.02,-358.67 199.88,-314.21 194.6,-285.39"></path>
<polygon fill="black" stroke="black" points="197.98,-284.4 192.74,-275.19 191.09,-285.66 197.98,-284.4"></polygon>
</g>
<!-- Service[mysql&#45;server] -->
<g id="node4" class="node">
<title>Service[mysql-server]</title>
<ellipse fill="none" stroke="black" cx="275.59" cy="-329" rx="58.35" ry="18"></ellipse>
<text text-anchor="middle" x="275.59" y="-327.1" font-family="Times,serif" font-size="8.00">Service[mysql-server]</text>
</g>
<!-- File[/etc/mysql/my.cnf]&#45;&gt;Service[mysql&#45;server] -->
<g id="edge3" class="edge">
<title>File[/etc/mysql/my.cnf]-&gt;Service[mysql-server]</title>
<path fill="none" stroke="black" d="M229.81,-383.41C237.28,-374.69 246.58,-363.85 254.84,-354.21"></path>
<polygon fill="black" stroke="black" points="257.62,-356.34 261.47,-346.47 252.31,-351.78 257.62,-356.34"></polygon>
</g>
<!-- Whit[Admissible_mysql_user[rob]] -->
<g id="node6" class="node">
<title>Whit[Admissible_mysql_user[rob]]</title>
<ellipse fill="none" stroke="black" cx="122.59" cy="-185" rx="72.08" ry="18"></ellipse>
<text text-anchor="middle" x="122.59" y="-183.1" font-family="Times,serif" font-size="8.00">Admissible_mysql_user[rob]</text>
</g>
<!-- Whit[Completed_class[Mysql]]&#45;&gt;Whit[Admissible_mysql_user[rob]] -->
<g id="edge12" class="edge">
<title>Whit[Completed_class[Mysql]]-&gt;Whit[Admissible_mysql_user[rob]]</title>
<path fill="none" stroke="black" d="M173.71,-239.41C165.4,-230.73 155.08,-219.95 145.89,-210.34"></path>
<polygon fill="black" stroke="black" points="148.26,-207.76 138.82,-202.96 143.2,-212.6 148.26,-207.76"></polygon>
</g>
<!-- Service[mysql&#45;server]&#45;&gt;Whit[Completed_class[Mysql]] -->
<g id="edge5" class="edge">
<title>Service[mysql-server]-&gt;Whit[Completed_class[Mysql]]</title>
<path fill="none" stroke="black" d="M255.64,-311.76C244.25,-302.49 229.78,-290.71 217.29,-280.55"></path>
<polygon fill="black" stroke="black" points="219.39,-277.75 209.43,-274.15 214.97,-283.17 219.39,-277.75"></polygon>
</g>
<!-- Whit[Admissible_class[Main]] -->
<g id="node5" class="node">
<title>Whit[Admissible_class[Main]]</title>
<ellipse fill="none" stroke="black" cx="55.59" cy="-257" rx="55.68" ry="18"></ellipse>
<text text-anchor="middle" x="55.59" y="-255.1" font-family="Times,serif" font-size="8.00">Starting Class[Main]</text>
</g>
<!-- Whit[Admissible_class[Main]]&#45;&gt;Whit[Admissible_mysql_user[rob]] -->
<g id="edge6" class="edge">
<title>Whit[Admissible_class[Main]]-&gt;Whit[Admissible_mysql_user[rob]]</title>
<path fill="none" stroke="black" d="M71.47,-239.41C79.77,-230.73 90.1,-219.95 99.29,-210.34"></path>
<polygon fill="black" stroke="black" points="101.97,-212.6 106.36,-202.96 96.92,-207.76 101.97,-212.6"></polygon>
</g>
<!-- Whit[Completed_mysql_user[rob]] -->
<g id="node8" class="node">
<title>Whit[Completed_mysql_user[rob]]</title>
<ellipse fill="none" stroke="black" cx="122.59" cy="-113" rx="72.08" ry="18"></ellipse>
<text text-anchor="middle" x="122.59" y="-111.1" font-family="Times,serif" font-size="8.00">Completed_mysql_user[rob]</text>
</g>
<!-- Whit[Admissible_mysql_user[rob]]&#45;&gt;Whit[Completed_mysql_user[rob]] -->
<g id="edge7" class="edge">
<title>Whit[Admissible_mysql_user[rob]]-&gt;Whit[Completed_mysql_user[rob]]</title>
<path fill="none" stroke="black" d="M122.59,-166.7C122.59,-158.98 122.59,-149.71 122.59,-141.11"></path>
<polygon fill="black" stroke="black" points="126.09,-141.1 122.59,-131.1 119.09,-141.1 126.09,-141.1"></polygon>
</g>
<!-- Whit[Completed_class[Main]] -->
<g id="node7" class="node">
<title>Whit[Completed_class[Main]]</title>
<ellipse fill="none" stroke="black" cx="122.59" cy="-41" rx="57.71" ry="18"></ellipse>
<text text-anchor="middle" x="122.59" y="-39.1" font-family="Times,serif" font-size="8.00">Finishing Class[Main]</text>
</g>
<!-- Whit[Completed_mysql_user[rob]]&#45;&gt;Whit[Completed_class[Main]] -->
<g id="edge8" class="edge">
<title>Whit[Completed_mysql_user[rob]]-&gt;Whit[Completed_class[Main]]</title>
<path fill="none" stroke="black" d="M122.59,-94.7C122.59,-86.98 122.59,-77.71 122.59,-69.11"></path>
<polygon fill="black" stroke="black" points="126.09,-69.1 122.59,-59.1 119.09,-69.1 126.09,-69.1"></polygon>
</g>
<!-- Whit[Admissible_class[Mysql]] -->
<g id="node9" class="node">
<title>Whit[Admissible_class[Mysql]]</title>
<ellipse fill="none" stroke="black" cx="240.59" cy="-545" rx="57.08" ry="18"></ellipse>
<text text-anchor="middle" x="240.59" y="-543.1" font-family="Times,serif" font-size="8.00">Starting Class[Mysql]</text>
</g>
<!-- Whit[Admissible_class[Mysql]]&#45;&gt;Package[mysql&#45;server] -->
<g id="edge9" class="edge">
<title>Whit[Admissible_class[Mysql]]-&gt;Package[mysql-server]</title>
<path fill="none" stroke="black" d="M220.39,-528.12C208.42,-518.7 193.05,-506.61 179.88,-496.25"></path>
<polygon fill="black" stroke="black" points="182.04,-493.49 172.01,-490.06 177.71,-499 182.04,-493.49"></polygon>
</g>
<!-- Whit[Admissible_class[Mysql]]&#45;&gt;File[/etc/mysql/my.cnf] -->
<g id="edge10" class="edge">
<title>Whit[Admissible_class[Mysql]]-&gt;File[/etc/mysql/my.cnf]</title>
<path fill="none" stroke="black" d="M237.57,-526.87C233.31,-502.67 225.48,-458.21 220.41,-429.39"></path>
<polygon fill="black" stroke="black" points="223.8,-428.43 218.61,-419.19 216.9,-429.64 223.8,-428.43"></polygon>
</g>
<!-- Whit[Admissible_class[Mysql]]&#45;&gt;Service[mysql&#45;server] -->
<g id="edge11" class="edge">
<title>Whit[Admissible_class[Mysql]]-&gt;Service[mysql-server]</title>
<path fill="none" stroke="black" d="M248.79,-527.13C259.74,-503.58 278.57,-459.22 285.59,-419 288.34,-403.24 287.08,-398.93 285.59,-383 284.79,-374.48 283.29,-365.28 281.69,-356.99"></path>
<polygon fill="black" stroke="black" points="285.09,-356.16 279.65,-347.07 278.23,-357.57 285.09,-356.16"></polygon>
</g>
</g>
</svg>
