<svg width="666pt" height="283pt" viewBox="0.00 0.00 666.18 283.00" xmlns="http://www.w3.org/2000/svg" xmlns:xlink="http://www.w3.org/1999/xlink">
<g id="graph0" class="graph" transform="scale(1 1) rotate(0) translate(4 279)">
<title>Puppet__Graph__RelationshipGraph</title>
<polygon fill="white" stroke="transparent" points="-4,4 -4,-279 662.18,-279 662.18,4 -4,4"></polygon>
<text text-anchor="middle" x="329.09" y="-7.8" font-family="Times,serif" font-size="14.00">Resource Relationships</text>
<!-- Whit[Admissible_class[Main]] -->
<g id="node1" class="node">
<title>Whit[Admissible_class[Main]]</title>
<ellipse fill="none" stroke="black" cx="57.86" cy="-257" rx="55.68" ry="18"></ellipse>
<text text-anchor="middle" x="57.86" y="-255.1" font-family="Times,serif" font-size="8.00">Starting Class[Main]</text>
</g>
<!-- Whit[Completed_class[Main]] -->
<g id="node2" class="node">
<title>Whit[Completed_class[Main]]</title>
<ellipse fill="none" stroke="black" cx="57.86" cy="-185" rx="57.71" ry="18"></ellipse>
<text text-anchor="middle" x="57.86" y="-183.1" font-family="Times,serif" font-size="8.00">Finishing Class[Main]</text>
</g>
<!-- Whit[Admissible_class[Main]]&#45;&gt;Whit[Completed_class[Main]] -->
<g id="edge1" class="edge">
<title>Whit[Admissible_class[Main]]-&gt;Whit[Completed_class[Main]]</title>
<path fill="none" stroke="black" d="M57.86,-238.7C57.86,-230.98 57.86,-221.71 57.86,-213.11"></path>
<polygon fill="black" stroke="black" points="61.36,-213.1 57.86,-203.1 54.36,-213.1 61.36,-213.1"></polygon>
</g>
<!-- Whit[Admissible_class[Profile::Rob::Testapp]] -->
<g id="node3" class="node">
<title>Whit[Admissible_class[Profile::Rob::Testapp]]</title>
<ellipse fill="none" stroke="red" cx="566.86" cy="-257" rx="91.15" ry="18"></ellipse>
<text text-anchor="middle" x="566.86" y="-255.1" font-family="Times,serif" font-size="8.00">Starting Class[Profile::Rob::Testapp]</text>
</g>
<!-- Whit[Admissible_class[Baseline_security_profile]] -->
<g id="node4" class="node">
<title>Whit[Admissible_class[Baseline_security_profile]]</title>
<ellipse fill="none" stroke="black" cx="381.86" cy="-185" rx="99.03" ry="18"></ellipse>
<text text-anchor="middle" x="381.86" y="-183.1" font-family="Times,serif" font-size="8.00">Starting Class[Baseline_security_profile]</text>
</g>
<!-- Whit[Admissible_class[Profile::Rob::Testapp]]&#45;&gt;Whit[Admissible_class[Baseline_security_profile]] -->
<g id="edge2" class="edge">
<title>Whit[Admissible_class[Profile::Rob::Testapp]]-&gt;Whit[Admissible_class[Baseline_security_profile]]</title>
<path fill="red" stroke="red" d="M526.72,-240.81C499,-230.33 461.94,-216.3 432.24,-205.06"></path>
<polygon fill="red" stroke="red" points="433.47,-201.79 422.88,-201.52 430.99,-208.33 433.47,-201.79"></polygon>
</g>
<!-- Whit[Completed_class[Baseline_security_profile]] -->
<g id="node6" class="node">
<title>Whit[Completed_class[Baseline_security_profile]]</title>
<ellipse fill="none" stroke="black" cx="386.86" cy="-113" rx="101.57" ry="18"></ellipse>
<text text-anchor="middle" x="386.86" y="-111.1" font-family="Times,serif" font-size="8.00">Finishing Class[Baseline_security_profile]</text>
</g>
<!-- Whit[Admissible_class[Baseline_security_profile]]&#45;&gt;Whit[Completed_class[Baseline_security_profile]] -->
<g id="edge3" class="edge">
<title>Whit[Admissible_class[Baseline_security_profile]]-&gt;Whit[Completed_class[Baseline_security_profile]]</title>
<path fill="none" stroke="red" d="M383.09,-166.7C383.64,-158.98 384.31,-149.71 384.92,-141.11"></path>
<polygon fill="red" stroke="red" points="388.41,-141.33 385.64,-131.1 381.43,-140.83 388.41,-141.33"></polygon>
</g>
<!-- Whit[Completed_class[Profile::Rob::Testapp]] -->
<g id="node5" class="node">
<title>Whit[Completed_class[Profile::Rob::Testapp]]</title>
<ellipse fill="none" stroke="black" cx="196.86" cy="-41" rx="94.32" ry="18"></ellipse>
<text text-anchor="middle" x="196.86" y="-39.1" font-family="Times,serif" font-size="8.00">Finishing Class[Profile::Rob::Testapp]</text>
</g>
<!-- Whit[Completed_class[Baseline_security_profile]]&#45;&gt;Whit[Completed_class[Profile::Rob::Testapp]] -->
<g id="edge4" class="edge">
<title>Whit[Completed_class[Baseline_security_profile]]-&gt;Whit[Completed_class[Profile::Rob::Testapp]]</title>
<path fill="none" stroke="black" d="M344.69,-96.46C316.08,-85.92 278.1,-71.93 247.8,-60.77"></path>
<polygon fill="black" stroke="black" points="248.85,-57.42 238.25,-57.25 246.43,-63.99 248.85,-57.42"></polygon>
</g>
<!-- Whit[Completed_class[Profile::Mysql]] -->
<g id="node7" class="node">
<title>Whit[Completed_class[Profile::Mysql]]</title>
<ellipse fill="none" stroke="black" cx="566.86" cy="-41" rx="77.92" ry="18"></ellipse>
<text text-anchor="middle" x="566.86" y="-39.1" font-family="Times,serif" font-size="8.00">Finishing Class[Profile::Mysql]</text>
</g>
<!-- Whit[Completed_class[Baseline_security_profile]]&#45;&gt;Whit[Completed_class[Profile::Mysql]] -->
<g id="edge5" class="edge">
<title>Whit[Completed_class[Baseline_security_profile]]-&gt;Whit[Completed_class[Profile::Mysql]]</title>
<path fill="none" stroke="red" d="M427.25,-96.29C454.54,-85.68 490.67,-71.63 519.34,-60.48"></path>
<polygon fill="red" stroke="red" points="520.7,-63.71 528.75,-56.82 518.16,-57.18 520.7,-63.71"></polygon>
</g>
<!-- Whit[Completed_class[Profile::Apache]] -->
<g id="node8" class="node">
<title>Whit[Completed_class[Profile::Apache]]</title>
<ellipse fill="none" stroke="black" cx="389.86" cy="-41" rx="81.23" ry="18"></ellipse>
<text text-anchor="middle" x="389.86" y="-39.1" font-family="Times,serif" font-size="8.00">Finishing Class[Profile::Apache]</text>
</g>
<!-- Whit[Completed_class[Baseline_security_profile]]&#45;&gt;Whit[Completed_class[Profile::Apache]] -->
<g id="edge6" class="edge">
<title>Whit[Completed_class[Baseline_security_profile]]-&gt;Whit[Completed_class[Profile::Apache]]</title>
<path fill="none" stroke="cyan" d="M387.6,-94.7C387.93,-86.98 388.33,-77.71 388.7,-69.11"></path>
<polygon fill="cyan" stroke="cyan" points="392.19,-69.25 389.12,-59.1 385.2,-68.95 392.19,-69.25"></polygon>
</g>
<!-- Whit[Completed_class[Profile::Mysql]]&#45;&gt;Whit[Admissible_class[Profile::Rob::Testapp]] -->
<g id="edge8" class="edge">
<title>Whit[Completed_class[Profile::Mysql]]-&gt;Whit[Admissible_class[Profile::Rob::Testapp]]</title>
<path fill="none" stroke="red" d="M566.86,-59.23C566.86,-96.32 566.86,-183.98 566.86,-228.71"></path>
<polygon fill="red" stroke="red" points="563.36,-228.85 566.86,-238.85 570.36,-228.85 563.36,-228.85"></polygon>
</g>
<!-- Whit[Completed_class[Profile::Apache]]&#45;&gt;Whit[Admissible_class[Profile::Rob::Testapp]] -->
<g id="edge10" class="edge">
<title>Whit[Completed_class[Profile::Apache]]-&gt;Whit[Admissible_class[Profile::Rob::Testapp]]</title>
<path fill="none" stroke="cyan" d="M435.38,-56.02C456.61,-64.48 480.88,-77.13 497.86,-95 534.3,-133.36 553.08,-193.95 561.37,-228.83"></path>
<polygon fill="cyan" stroke="cyan" points="558,-229.8 563.62,-238.78 564.83,-228.26 558,-229.8"></polygon>
</g>
<!-- Whit[Admissible_class[Profile::Mysql]] -->
<g id="node9" class="node">
<title>Whit[Admissible_class[Profile::Mysql]]</title>
<ellipse fill="none" stroke="black" cx="206.86" cy="-257" rx="75.38" ry="18"></ellipse>
<text text-anchor="middle" x="206.86" y="-255.1" font-family="Times,serif" font-size="8.00">Starting Class[Profile::Mysql]</text>
</g>
<!-- Whit[Admissible_class[Profile::Mysql]]&#45;&gt;Whit[Admissible_class[Baseline_security_profile]] -->
<g id="edge7" class="edge">
<title>Whit[Admissible_class[Profile::Mysql]]-&gt;Whit[Admissible_class[Baseline_security_profile]]</title>
<path fill="none" stroke="black" d="M243.97,-241.15C270.02,-230.73 305.11,-216.7 333.37,-205.39"></path>
<polygon fill="black" stroke="black" points="334.69,-208.64 342.67,-201.67 332.09,-202.14 334.69,-208.64"></polygon>
</g>
<!-- Whit[Admissible_class[Profile::Apache]] -->
<g id="node10" class="node">
<title>Whit[Admissible_class[Profile::Apache]]</title>
<ellipse fill="none" stroke="black" cx="378.86" cy="-257" rx="78.69" ry="18"></ellipse>
<text text-anchor="middle" x="378.86" y="-255.1" font-family="Times,serif" font-size="8.00">Starting Class[Profile::Apache]</text>
</g>
<!-- Whit[Admissible_class[Profile::Apache]]&#45;&gt;Whit[Admissible_class[Baseline_security_profile]] -->
<g id="edge9" class="edge">
<title>Whit[Admissible_class[Profile::Apache]]-&gt;Whit[Admissible_class[Baseline_security_profile]]</title>
<path fill="none" stroke="black" d="M379.6,-238.7C379.93,-230.98 380.33,-221.71 380.7,-213.11"></path>
<polygon fill="black" stroke="black" points="384.19,-213.25 381.12,-203.1 377.2,-212.95 384.19,-213.25"></polygon>
</g>
</g>
</svg>
