<svg width="1360pt" height="427pt" viewBox="0.00 0.00 1360.00 427.00" xmlns="http://www.w3.org/2000/svg" xmlns:xlink="http://www.w3.org/1999/xlink">
<g id="graph0" class="graph" transform="scale(1 1) rotate(0) translate(4 423)">
<title>Puppet__Graph__RelationshipGraph</title>
<polygon fill="white" stroke="transparent" points="-4,4 -4,-423 1356,-423 1356,4 -4,4"></polygon>
<text text-anchor="middle" x="676" y="-7.8" font-family="Times,serif" font-size="14.00">Resource Relationships</text>
<!-- Package[mysql&#45;server] -->
<g id="node1" class="node">
<title>Package[mysql-server]</title>
<ellipse fill="none" stroke="black" cx="60.69" cy="-329" rx="60.89" ry="18"></ellipse>
<text text-anchor="middle" x="60.69" y="-327.1" font-family="Times,serif" font-size="8.00">Package[mysql-server]</text>
</g>
<!-- File[/etc/mysql/my.cnf] -->
<g id="node2" class="node">
<title>File[/etc/mysql/my.cnf]</title>
<ellipse fill="none" stroke="black" cx="137.69" cy="-257" rx="60.89" ry="18"></ellipse>
<text text-anchor="middle" x="137.69" y="-255.1" font-family="Times,serif" font-size="8.00">File[/etc/mysql/my.cnf]</text>
</g>
<!-- Package[mysql&#45;server]&#45;&gt;File[/etc/mysql/my.cnf] -->
<g id="edge1" class="edge">
<title>Package[mysql-server]-&gt;File[/etc/mysql/my.cnf]</title>
<path fill="none" stroke="black" d="M78.55,-311.76C88.49,-302.73 101.03,-291.33 112.01,-281.35"></path>
<polygon fill="black" stroke="black" points="114.62,-283.71 119.66,-274.39 109.91,-278.53 114.62,-283.71"></polygon>
</g>
<!-- Whit[Completed_class[Mysql::Server]] -->
<g id="node3" class="node">
<title>Whit[Completed_class[Mysql::Server]]</title>
<ellipse fill="none" stroke="black" cx="112.69" cy="-113" rx="78.06" ry="18"></ellipse>
<text text-anchor="middle" x="112.69" y="-111.1" font-family="Times,serif" font-size="8.00">Finishing Class[Mysql::Server]</text>
</g>
<!-- Package[mysql&#45;server]&#45;&gt;Whit[Completed_class[Mysql::Server]] -->
<g id="edge2" class="edge">
<title>Package[mysql-server]-&gt;Whit[Completed_class[Mysql::Server]]</title>
<path fill="none" stroke="black" d="M60.69,-310.74C61.01,-292.67 62.41,-263.55 67.69,-239 75.24,-203.92 90.24,-165.32 100.84,-140.43"></path>
<polygon fill="black" stroke="black" points="104.17,-141.53 104.94,-130.96 97.75,-138.75 104.17,-141.53"></polygon>
</g>
<!-- File[/etc/mysql/my.cnf]&#45;&gt;Whit[Completed_class[Mysql::Server]] -->
<g id="edge4" class="edge">
<title>File[/etc/mysql/my.cnf]-&gt;Whit[Completed_class[Mysql::Server]]</title>
<path fill="none" stroke="black" d="M134.68,-238.87C130.42,-214.67 122.59,-170.21 117.52,-141.39"></path>
<polygon fill="black" stroke="black" points="120.9,-140.43 115.72,-131.19 114.01,-141.64 120.9,-140.43"></polygon>
</g>
<!-- Service[mysql&#45;server] -->
<g id="node4" class="node">
<title>Service[mysql-server]</title>
<ellipse fill="none" stroke="black" cx="198.69" cy="-185" rx="58.35" ry="18"></ellipse>
<text text-anchor="middle" x="198.69" y="-183.1" font-family="Times,serif" font-size="8.00">Service[mysql-server]</text>
</g>
<!-- File[/etc/mysql/my.cnf]&#45;&gt;Service[mysql&#45;server] -->
<g id="edge3" class="edge">
<title>File[/etc/mysql/my.cnf]-&gt;Service[mysql-server]</title>
<path fill="none" stroke="black" d="M152.15,-239.41C159.75,-230.69 169.2,-219.85 177.6,-210.21"></path>
<polygon fill="black" stroke="black" points="180.41,-212.31 184.34,-202.47 175.13,-207.71 180.41,-212.31"></polygon>
</g>
<!-- Service[mysql&#45;server]&#45;&gt;Whit[Completed_class[Mysql::Server]] -->
<g id="edge5" class="edge">
<title>Service[mysql-server]-&gt;Whit[Completed_class[Mysql::Server]]</title>
<path fill="none" stroke="black" d="M178.75,-167.76C167.51,-158.62 153.3,-147.05 140.94,-136.99"></path>
<polygon fill="black" stroke="black" points="143.09,-134.23 133.13,-130.63 138.67,-139.66 143.09,-134.23"></polygon>
</g>
<!-- Whit[Admissible_class[Main]] -->
<g id="node5" class="node">
<title>Whit[Admissible_class[Main]]</title>
<ellipse fill="none" stroke="black" cx="312.69" cy="-401" rx="55.68" ry="18"></ellipse>
<text text-anchor="middle" x="312.69" y="-399.1" font-family="Times,serif" font-size="8.00">Starting Class[Main]</text>
</g>
<!-- Whit[Completed_class[Main]] -->
<g id="node6" class="node">
<title>Whit[Completed_class[Main]]</title>
<ellipse fill="none" stroke="black" cx="312.69" cy="-329" rx="57.71" ry="18"></ellipse>
<text text-anchor="middle" x="312.69" y="-327.1" font-family="Times,serif" font-size="8.00">Finishing Class[Main]</text>
</g>
<!-- Whit[Admissible_class[Main]]&#45;&gt;Whit[Completed_class[Main]] -->
<g id="edge6" class="edge">
<title>Whit[Admissible_class[Main]]-&gt;Whit[Completed_class[Main]]</title>
<path fill="none" stroke="black" d="M312.69,-382.7C312.69,-374.98 312.69,-365.71 312.69,-357.11"></path>
<polygon fill="black" stroke="black" points="316.19,-357.1 312.69,-347.1 309.19,-357.1 316.19,-357.1"></polygon>
</g>
<!-- Whit[Admissible_class[Profile::Mysql]] -->
<g id="node7" class="node">
<title>Whit[Admissible_class[Profile::Mysql]]</title>
<ellipse fill="none" stroke="black" cx="466.69" cy="-401" rx="75.38" ry="18"></ellipse>
<text text-anchor="middle" x="466.69" y="-399.1" font-family="Times,serif" font-size="8.00">Starting Class[Profile::Mysql]</text>
</g>
<!-- Whit[Completed_class[Profile::Mysql]] -->
<g id="node8" class="node">
<title>Whit[Completed_class[Profile::Mysql]]</title>
<ellipse fill="none" stroke="black" cx="466.69" cy="-329" rx="77.92" ry="18"></ellipse>
<text text-anchor="middle" x="466.69" y="-327.1" font-family="Times,serif" font-size="8.00">Finishing Class[Profile::Mysql]</text>
</g>
<!-- Whit[Admissible_class[Profile::Mysql]]&#45;&gt;Whit[Completed_class[Profile::Mysql]] -->
<g id="edge7" class="edge">
<title>Whit[Admissible_class[Profile::Mysql]]-&gt;Whit[Completed_class[Profile::Mysql]]</title>
<path fill="none" stroke="black" d="M466.69,-382.7C466.69,-374.98 466.69,-365.71 466.69,-357.11"></path>
<polygon fill="black" stroke="black" points="470.19,-357.1 466.69,-347.1 463.19,-357.1 470.19,-357.1"></polygon>
</g>
<!-- Whit[Admissible_class[Profile::Rob::Testapp]] -->
<g id="node9" class="node">
<title>Whit[Admissible_class[Profile::Rob::Testapp]]</title>
<ellipse fill="none" stroke="black" cx="466.69" cy="-257" rx="91.15" ry="18"></ellipse>
<text text-anchor="middle" x="466.69" y="-255.1" font-family="Times,serif" font-size="8.00">Starting Class[Profile::Rob::Testapp]</text>
</g>
<!-- Whit[Completed_class[Profile::Mysql]]&#45;&gt;Whit[Admissible_class[Profile::Rob::Testapp]] -->
<g id="edge8" class="edge">
<title>Whit[Completed_class[Profile::Mysql]]-&gt;Whit[Admissible_class[Profile::Rob::Testapp]]</title>
<path fill="none" stroke="black" d="M466.69,-310.7C466.69,-302.98 466.69,-293.71 466.69,-285.11"></path>
<polygon fill="black" stroke="black" points="470.19,-285.1 466.69,-275.1 463.19,-285.1 470.19,-285.1"></polygon>
</g>
<!-- Whit[Admissible_mysql_user[rob]] -->
<g id="node19" class="node">
<title>Whit[Admissible_mysql_user[rob]]</title>
<ellipse fill="none" stroke="black" cx="419.69" cy="-185" rx="72.08" ry="18"></ellipse>
<text text-anchor="middle" x="419.69" y="-183.1" font-family="Times,serif" font-size="8.00">Admissible_mysql_user[rob]</text>
</g>
<!-- Whit[Admissible_class[Profile::Rob::Testapp]]&#45;&gt;Whit[Admissible_mysql_user[rob]] -->
<g id="edge17" class="edge">
<title>Whit[Admissible_class[Profile::Rob::Testapp]]-&gt;Whit[Admissible_mysql_user[rob]]</title>
<path fill="none" stroke="black" d="M455.32,-239.05C449.72,-230.71 442.85,-220.49 436.65,-211.25"></path>
<polygon fill="black" stroke="black" points="439.45,-209.14 430.97,-202.79 433.63,-213.04 439.45,-209.14"></polygon>
</g>
<!-- Whit[Admissible_mysql::Db[robstestapp]] -->
<g id="node20" class="node">
<title>Whit[Admissible_mysql::Db[robstestapp]]</title>
<ellipse fill="none" stroke="black" cx="598.69" cy="-185" rx="89.11" ry="18"></ellipse>
<text text-anchor="middle" x="598.69" y="-183.1" font-family="Times,serif" font-size="8.00">Admissible_mysql::Db[robstestapp]</text>
</g>
<!-- Whit[Admissible_class[Profile::Rob::Testapp]]&#45;&gt;Whit[Admissible_mysql::Db[robstestapp]] -->
<g id="edge18" class="edge">
<title>Whit[Admissible_class[Profile::Rob::Testapp]]-&gt;Whit[Admissible_mysql::Db[robstestapp]]</title>
<path fill="none" stroke="black" d="M496.98,-239.94C515.59,-230.07 539.63,-217.32 559.66,-206.7"></path>
<polygon fill="black" stroke="black" points="561.36,-209.76 568.55,-201.98 558.08,-203.58 561.36,-209.76"></polygon>
</g>
<!-- Whit[Admissible_class[Baseline_security_profile]] -->
<g id="node10" class="node">
<title>Whit[Admissible_class[Baseline_security_profile]]</title>
<ellipse fill="red" stroke="red" cx="663.69" cy="-401" rx="99.03" ry="18"></ellipse>
<text text-anchor="middle" x="663.69" y="-399.1" font-family="Times,serif" font-size="8.00">Starting Class[Baseline_security_profile]</text>
</g>
<!-- Whit[Completed_class[Baseline_security_profile]] -->
<g id="node11" class="node">
<title>Whit[Completed_class[Baseline_security_profile]]</title>
<ellipse fill="red" stroke="red" cx="663.69" cy="-329" rx="101.57" ry="18"></ellipse>
<text text-anchor="middle" x="663.69" y="-327.1" font-family="Times,serif" font-size="8.00">Finishing Class[Baseline_security_profile]</text>
</g>
<!-- Whit[Admissible_class[Baseline_security_profile]]&#45;&gt;Whit[Completed_class[Baseline_security_profile]] -->
<g id="edge9" class="edge">
<title>Whit[Admissible_class[Baseline_security_profile]]-&gt;Whit[Completed_class[Baseline_security_profile]]</title>
<path fill="red" stroke="red" d="M663.69,-382.7C663.69,-374.98 663.69,-365.71 663.69,-357.11"></path>
<polygon fill="red" stroke="red" points="667.19,-357.1 663.69,-347.1 660.19,-357.1 667.19,-357.1"></polygon>
</g>
<!-- Whit[Admissible_class[Mysql::Server]] -->
<g id="node12" class="node">
<title>Whit[Admissible_class[Mysql::Server]]</title>
<ellipse fill="none" stroke="black" cx="149.69" cy="-401" rx="76.02" ry="18"></ellipse>
<text text-anchor="middle" x="149.69" y="-399.1" font-family="Times,serif" font-size="8.00">Starting Class[Mysql::Server]</text>
</g>
<!-- Whit[Admissible_class[Mysql::Server]]&#45;&gt;Package[mysql&#45;server] -->
<g id="edge10" class="edge">
<title>Whit[Admissible_class[Mysql::Server]]-&gt;Package[mysql-server]</title>
<path fill="none" stroke="black" d="M128.6,-383.41C116.79,-374.12 101.91,-362.42 89.1,-352.34"></path>
<polygon fill="black" stroke="black" points="91.05,-349.42 81.02,-345.99 86.72,-354.92 91.05,-349.42"></polygon>
</g>
<!-- Whit[Admissible_class[Mysql::Server]]&#45;&gt;File[/etc/mysql/my.cnf] -->
<g id="edge11" class="edge">
<title>Whit[Admissible_class[Mysql::Server]]-&gt;File[/etc/mysql/my.cnf]</title>
<path fill="none" stroke="black" d="M148.25,-382.87C146.2,-358.67 142.44,-314.21 140.01,-285.39"></path>
<polygon fill="black" stroke="black" points="143.48,-284.86 139.15,-275.19 136.5,-285.45 143.48,-284.86"></polygon>
</g>
<!-- Whit[Admissible_class[Mysql::Server]]&#45;&gt;Service[mysql&#45;server] -->
<g id="edge12" class="edge">
<title>Whit[Admissible_class[Mysql::Server]]-&gt;Service[mysql-server]</title>
<path fill="none" stroke="black" d="M160.49,-383.05C174.61,-359.78 198.62,-316.12 207.69,-275 212.2,-254.56 209.47,-230.97 205.87,-213.22"></path>
<polygon fill="black" stroke="black" points="209.24,-212.24 203.64,-203.25 202.41,-213.77 209.24,-212.24"></polygon>
</g>
<!-- Whit[Admissible_class[Profile::Apache]] -->
<g id="node13" class="node">
<title>Whit[Admissible_class[Profile::Apache]]</title>
<ellipse fill="none" stroke="black" cx="911.69" cy="-401" rx="78.69" ry="18"></ellipse>
<text text-anchor="middle" x="911.69" y="-399.1" font-family="Times,serif" font-size="8.00">Starting Class[Profile::Apache]</text>
</g>
<!-- Whit[Admissible_apache::Vhost[robstestapp.example.com]] -->
<g id="node14" class="node">
<title>Whit[Admissible_apache::Vhost[robstestapp.example.com]]</title>
<ellipse fill="none" stroke="black" cx="911.69" cy="-329" rx="128.52" ry="18"></ellipse>
<text text-anchor="middle" x="911.69" y="-327.1" font-family="Times,serif" font-size="8.00">Admissible_apache::Vhost[robstestapp.example.com]</text>
</g>
<!-- Whit[Admissible_class[Profile::Apache]]&#45;&gt;Whit[Admissible_apache::Vhost[robstestapp.example.com]] -->
<g id="edge13" class="edge">
<title>Whit[Admissible_class[Profile::Apache]]-&gt;Whit[Admissible_apache::Vhost[robstestapp.example.com]]</title>
<path fill="none" stroke="black" d="M911.69,-382.7C911.69,-374.98 911.69,-365.71 911.69,-357.11"></path>
<polygon fill="black" stroke="black" points="915.19,-357.1 911.69,-347.1 908.19,-357.1 915.19,-357.1"></polygon>
</g>
<!-- Whit[Completed_apache::Vhost[robstestapp.example.com]] -->
<g id="node18" class="node">
<title>Whit[Completed_apache::Vhost[robstestapp.example.com]]</title>
<ellipse fill="none" stroke="black" cx="911.69" cy="-257" rx="128.52" ry="18"></ellipse>
<text text-anchor="middle" x="911.69" y="-255.1" font-family="Times,serif" font-size="8.00">Completed_apache::Vhost[robstestapp.example.com]</text>
</g>
<!-- Whit[Admissible_apache::Vhost[robstestapp.example.com]]&#45;&gt;Whit[Completed_apache::Vhost[robstestapp.example.com]] -->
<g id="edge15" class="edge">
<title>Whit[Admissible_apache::Vhost[robstestapp.example.com]]-&gt;Whit[Completed_apache::Vhost[robstestapp.example.com]]</title>
<path fill="none" stroke="black" d="M911.69,-310.7C911.69,-302.98 911.69,-293.71 911.69,-285.11"></path>
<polygon fill="black" stroke="black" points="915.19,-285.1 911.69,-275.1 908.19,-285.1 915.19,-285.1"></polygon>
</g>
<!-- Whit[Completed_class[Profile::Apache]] -->
<g id="node15" class="node">
<title>Whit[Completed_class[Profile::Apache]]</title>
<ellipse fill="none" stroke="black" cx="911.69" cy="-185" rx="81.23" ry="18"></ellipse>
<text text-anchor="middle" x="911.69" y="-183.1" font-family="Times,serif" font-size="8.00">Finishing Class[Profile::Apache]</text>
</g>
<!-- Whit[Admissible_class[Apache]] -->
<g id="node16" class="node">
<title>Whit[Admissible_class[Apache]]</title>
<ellipse fill="none" stroke="black" cx="1121.69" cy="-401" rx="60.89" ry="18"></ellipse>
<text text-anchor="middle" x="1121.69" y="-399.1" font-family="Times,serif" font-size="8.00">Starting Class[Apache]</text>
</g>
<!-- Whit[Completed_class[Apache]] -->
<g id="node17" class="node">
<title>Whit[Completed_class[Apache]]</title>
<ellipse fill="none" stroke="black" cx="1121.69" cy="-329" rx="63.56" ry="18"></ellipse>
<text text-anchor="middle" x="1121.69" y="-327.1" font-family="Times,serif" font-size="8.00">Finishing Class[Apache]</text>
</g>
<!-- Whit[Admissible_class[Apache]]&#45;&gt;Whit[Completed_class[Apache]] -->
<g id="edge14" class="edge">
<title>Whit[Admissible_class[Apache]]-&gt;Whit[Completed_class[Apache]]</title>
<path fill="none" stroke="black" d="M1121.69,-382.7C1121.69,-374.98 1121.69,-365.71 1121.69,-357.11"></path>
<polygon fill="black" stroke="black" points="1125.19,-357.1 1121.69,-347.1 1118.19,-357.1 1125.19,-357.1"></polygon>
</g>
<!-- Whit[Completed_apache::Vhost[robstestapp.example.com]]&#45;&gt;Whit[Completed_class[Profile::Apache]] -->
<g id="edge16" class="edge">
<title>Whit[Completed_apache::Vhost[robstestapp.example.com]]-&gt;Whit[Completed_class[Profile::Apache]]</title>
<path fill="none" stroke="black" d="M911.69,-238.7C911.69,-230.98 911.69,-221.71 911.69,-213.11"></path>
<polygon fill="black" stroke="black" points="915.19,-213.1 911.69,-203.1 908.19,-213.1 915.19,-213.1"></polygon>
</g>
<!-- Whit[Completed_mysql_user[rob]] -->
<g id="node22" class="node">
<title>Whit[Completed_mysql_user[rob]]</title>
<ellipse fill="none" stroke="black" cx="419.69" cy="-113" rx="72.08" ry="18"></ellipse>
<text text-anchor="middle" x="419.69" y="-111.1" font-family="Times,serif" font-size="8.00">Completed_mysql_user[rob]</text>
</g>
<!-- Whit[Admissible_mysql_user[rob]]&#45;&gt;Whit[Completed_mysql_user[rob]] -->
<g id="edge19" class="edge">
<title>Whit[Admissible_mysql_user[rob]]-&gt;Whit[Completed_mysql_user[rob]]</title>
<path fill="none" stroke="black" d="M419.69,-166.7C419.69,-158.98 419.69,-149.71 419.69,-141.11"></path>
<polygon fill="black" stroke="black" points="423.19,-141.1 419.69,-131.1 416.19,-141.1 423.19,-141.1"></polygon>
</g>
<!-- Whit[Completed_mysql::Db[robstestapp]] -->
<g id="node23" class="node">
<title>Whit[Completed_mysql::Db[robstestapp]]</title>
<ellipse fill="none" stroke="black" cx="598.69" cy="-113" rx="89.11" ry="18"></ellipse>
<text text-anchor="middle" x="598.69" y="-111.1" font-family="Times,serif" font-size="8.00">Completed_mysql::Db[robstestapp]</text>
</g>
<!-- Whit[Admissible_mysql::Db[robstestapp]]&#45;&gt;Whit[Completed_mysql::Db[robstestapp]] -->
<g id="edge21" class="edge">
<title>Whit[Admissible_mysql::Db[robstestapp]]-&gt;Whit[Completed_mysql::Db[robstestapp]]</title>
<path fill="none" stroke="black" d="M598.69,-166.7C598.69,-158.98 598.69,-149.71 598.69,-141.11"></path>
<polygon fill="black" stroke="black" points="602.19,-141.1 598.69,-131.1 595.19,-141.1 602.19,-141.1"></polygon>
</g>
<!-- Whit[Completed_class[Profile::Rob::Testapp]] -->
<g id="node21" class="node">
<title>Whit[Completed_class[Profile::Rob::Testapp]]</title>
<ellipse fill="none" stroke="black" cx="508.69" cy="-41" rx="94.32" ry="18"></ellipse>
<text text-anchor="middle" x="508.69" y="-39.1" font-family="Times,serif" font-size="8.00">Finishing Class[Profile::Rob::Testapp]</text>
</g>
<!-- Whit[Completed_mysql_user[rob]]&#45;&gt;Whit[Completed_class[Profile::Rob::Testapp]] -->
<g id="edge20" class="edge">
<title>Whit[Completed_mysql_user[rob]]-&gt;Whit[Completed_class[Profile::Rob::Testapp]]</title>
<path fill="none" stroke="black" d="M440.79,-95.41C452.34,-86.32 466.84,-74.92 479.46,-64.99"></path>
<polygon fill="black" stroke="black" points="481.75,-67.65 487.44,-58.71 477.42,-62.14 481.75,-67.65"></polygon>
</g>
<!-- Whit[Completed_mysql::Db[robstestapp]]&#45;&gt;Whit[Completed_class[Profile::Rob::Testapp]] -->
<g id="edge22" class="edge">
<title>Whit[Completed_mysql::Db[robstestapp]]-&gt;Whit[Completed_class[Profile::Rob::Testapp]]</title>
<path fill="none" stroke="black" d="M577.36,-95.41C565.68,-86.32 551.02,-74.92 538.25,-64.99"></path>
<polygon fill="black" stroke="black" points="540.22,-62.09 530.18,-58.71 535.93,-67.61 540.22,-62.09"></polygon>
</g>
<!-- Whit[Admissible_class[Robstestapp]] -->
<g id="node24" class="node">
<title>Whit[Admissible_class[Robstestapp]]</title>
<ellipse fill="none" stroke="black" cx="1277.69" cy="-401" rx="71.44" ry="18"></ellipse>
<text text-anchor="middle" x="1277.69" y="-399.1" font-family="Times,serif" font-size="8.00">Starting Class[Robstestapp]</text>
</g>
<!-- Whit[Completed_class[Robstestapp]] -->
<g id="node25" class="node">
<title>Whit[Completed_class[Robstestapp]]</title>
<ellipse fill="none" stroke="black" cx="1277.69" cy="-329" rx="74.11" ry="18"></ellipse>
<text text-anchor="middle" x="1277.69" y="-327.1" font-family="Times,serif" font-size="8.00">Finishing Class[Robstestapp]</text>
</g>
<!-- Whit[Admissible_class[Robstestapp]]&#45;&gt;Whit[Completed_class[Robstestapp]] -->
<g id="edge23" class="edge">
<title>Whit[Admissible_class[Robstestapp]]-&gt;Whit[Completed_class[Robstestapp]]</title>
<path fill="none" stroke="black" d="M1277.69,-382.7C1277.69,-374.98 1277.69,-365.71 1277.69,-357.11"></path>
<polygon fill="black" stroke="black" points="1281.19,-357.1 1277.69,-347.1 1274.19,-357.1 1281.19,-357.1"></polygon>
</g>
</g>
</svg>
